<mxfile host="app.diagrams.net" agent="Mozilla/5.0 (Windows NT 10.0; Win64; x64; rv:130.0) Gecko/20100101 Firefox/130.0" version="24.7.17">
  <diagram name="Сторінка-1" id="j3dnJwqCAzhxyN8Z1lVi">
    <mxGraphModel dx="934" dy="526" grid="1" gridSize="10" guides="1" tooltips="1" connect="1" arrows="1" fold="1" page="1" pageScale="1" pageWidth="827" pageHeight="1169" math="0" shadow="0">
      <root>
        <mxCell id="0" />
        <mxCell id="1" parent="0" />
        <mxCell id="UCkw8O8bc3dzk6dkxjJ4-1" style="edgeStyle=orthogonalEdgeStyle;rounded=0;orthogonalLoop=1;jettySize=auto;html=1;exitX=0.5;exitY=1;exitDx=0;exitDy=0;entryX=0.5;entryY=0;entryDx=0;entryDy=0;" parent="1" source="iA7xg-9TLThsFJfs8mAg-1" target="iA7xg-9TLThsFJfs8mAg-3" edge="1">
          <mxGeometry relative="1" as="geometry" />
        </mxCell>
        <mxCell id="iA7xg-9TLThsFJfs8mAg-1" value="Start" style="ellipse;whiteSpace=wrap;html=1;" parent="1" vertex="1">
          <mxGeometry x="365" y="10" width="120" height="40" as="geometry" />
        </mxCell>
        <mxCell id="UCkw8O8bc3dzk6dkxjJ4-2" style="edgeStyle=orthogonalEdgeStyle;rounded=0;orthogonalLoop=1;jettySize=auto;html=1;exitX=0.5;exitY=1;exitDx=0;exitDy=0;entryX=0.5;entryY=0;entryDx=0;entryDy=0;" parent="1" source="iA7xg-9TLThsFJfs8mAg-3" target="hqbnRQEziRmDWoI5ASOh-35" edge="1">
          <mxGeometry relative="1" as="geometry" />
        </mxCell>
        <mxCell id="iA7xg-9TLThsFJfs8mAg-3" value="Input P, r, t, n" style="shape=parallelogram;perimeter=parallelogramPerimeter;whiteSpace=wrap;html=1;fixedSize=1;" parent="1" vertex="1">
          <mxGeometry x="330" y="64" width="190" height="30" as="geometry" />
        </mxCell>
        <mxCell id="UCkw8O8bc3dzk6dkxjJ4-16" style="edgeStyle=orthogonalEdgeStyle;rounded=0;orthogonalLoop=1;jettySize=auto;html=1;exitX=0.5;exitY=1;exitDx=0;exitDy=0;entryX=0.5;entryY=0;entryDx=0;entryDy=0;" parent="1" source="iA7xg-9TLThsFJfs8mAg-12" target="hqbnRQEziRmDWoI5ASOh-30" edge="1">
          <mxGeometry relative="1" as="geometry" />
        </mxCell>
        <mxCell id="iA7xg-9TLThsFJfs8mAg-12" value="A = P * pow((1+r/n), n*t)" style="rounded=0;whiteSpace=wrap;html=1;" parent="1" vertex="1">
          <mxGeometry x="347.5" y="370" width="160" height="40" as="geometry" />
        </mxCell>
        <mxCell id="iA7xg-9TLThsFJfs8mAg-13" value="Switch(n)" style="text;html=1;align=center;verticalAlign=middle;whiteSpace=wrap;rounded=0;" parent="1" vertex="1">
          <mxGeometry x="400" y="115" width="60" height="30" as="geometry" />
        </mxCell>
        <mxCell id="UCkw8O8bc3dzk6dkxjJ4-4" style="edgeStyle=orthogonalEdgeStyle;rounded=0;orthogonalLoop=1;jettySize=auto;html=1;exitX=0.5;exitY=1;exitDx=0;exitDy=0;entryX=0.5;entryY=0;entryDx=0;entryDy=0;" parent="1" source="iA7xg-9TLThsFJfs8mAg-14" target="hqbnRQEziRmDWoI5ASOh-21" edge="1">
          <mxGeometry relative="1" as="geometry" />
        </mxCell>
        <mxCell id="UCkw8O8bc3dzk6dkxjJ4-8" style="edgeStyle=orthogonalEdgeStyle;rounded=0;orthogonalLoop=1;jettySize=auto;html=1;exitX=1;exitY=0.5;exitDx=0;exitDy=0;entryX=0;entryY=0.5;entryDx=0;entryDy=0;" parent="1" source="iA7xg-9TLThsFJfs8mAg-14" target="iA7xg-9TLThsFJfs8mAg-19" edge="1">
          <mxGeometry relative="1" as="geometry" />
        </mxCell>
        <mxCell id="iA7xg-9TLThsFJfs8mAg-14" value="Case 1" style="rhombus;whiteSpace=wrap;html=1;" parent="1" vertex="1">
          <mxGeometry x="340" y="160" width="170" height="40" as="geometry" />
        </mxCell>
        <mxCell id="UCkw8O8bc3dzk6dkxjJ4-18" style="edgeStyle=orthogonalEdgeStyle;rounded=0;orthogonalLoop=1;jettySize=auto;html=1;entryX=1;entryY=0.5;entryDx=0;entryDy=0;" parent="1" source="iA7xg-9TLThsFJfs8mAg-19" target="iA7xg-9TLThsFJfs8mAg-12" edge="1">
          <mxGeometry relative="1" as="geometry">
            <mxPoint x="510" y="390" as="targetPoint" />
            <Array as="points">
              <mxPoint x="700" y="180" />
              <mxPoint x="700" y="390" />
            </Array>
          </mxGeometry>
        </mxCell>
        <mxCell id="iA7xg-9TLThsFJfs8mAg-19" value="n=12" style="rounded=0;whiteSpace=wrap;html=1;" parent="1" vertex="1">
          <mxGeometry x="540" y="160" width="120" height="40" as="geometry" />
        </mxCell>
        <mxCell id="UCkw8O8bc3dzk6dkxjJ4-19" style="edgeStyle=orthogonalEdgeStyle;rounded=0;orthogonalLoop=1;jettySize=auto;html=1;exitX=1;exitY=0.5;exitDx=0;exitDy=0;" parent="1" source="iA7xg-9TLThsFJfs8mAg-20" edge="1">
          <mxGeometry relative="1" as="geometry">
            <mxPoint x="700" y="232.68965517241384" as="targetPoint" />
          </mxGeometry>
        </mxCell>
        <mxCell id="iA7xg-9TLThsFJfs8mAg-20" value="n=4" style="rounded=0;whiteSpace=wrap;html=1;" parent="1" vertex="1">
          <mxGeometry x="540" y="213.75" width="120" height="37.5" as="geometry" />
        </mxCell>
        <mxCell id="UCkw8O8bc3dzk6dkxjJ4-20" style="edgeStyle=orthogonalEdgeStyle;rounded=0;orthogonalLoop=1;jettySize=auto;html=1;exitX=1;exitY=0.5;exitDx=0;exitDy=0;" parent="1" source="iA7xg-9TLThsFJfs8mAg-21" edge="1">
          <mxGeometry relative="1" as="geometry">
            <mxPoint x="700" y="289.9310344827586" as="targetPoint" />
          </mxGeometry>
        </mxCell>
        <mxCell id="iA7xg-9TLThsFJfs8mAg-21" value="n=1" style="rounded=0;whiteSpace=wrap;html=1;" parent="1" vertex="1">
          <mxGeometry x="540" y="270" width="120" height="40" as="geometry" />
        </mxCell>
        <mxCell id="iA7xg-9TLThsFJfs8mAg-22" value="Invalid input" style="rounded=0;whiteSpace=wrap;html=1;" parent="1" vertex="1">
          <mxGeometry x="540" y="320" width="120" height="40" as="geometry" />
        </mxCell>
        <mxCell id="UCkw8O8bc3dzk6dkxjJ4-6" style="edgeStyle=orthogonalEdgeStyle;rounded=0;orthogonalLoop=1;jettySize=auto;html=1;exitX=0.5;exitY=1;exitDx=0;exitDy=0;entryX=0.5;entryY=0;entryDx=0;entryDy=0;" parent="1" source="hqbnRQEziRmDWoI5ASOh-21" target="hqbnRQEziRmDWoI5ASOh-23" edge="1">
          <mxGeometry relative="1" as="geometry" />
        </mxCell>
        <mxCell id="UCkw8O8bc3dzk6dkxjJ4-15" style="edgeStyle=orthogonalEdgeStyle;rounded=0;orthogonalLoop=1;jettySize=auto;html=1;exitX=1;exitY=0.5;exitDx=0;exitDy=0;entryX=0;entryY=0.5;entryDx=0;entryDy=0;" parent="1" source="hqbnRQEziRmDWoI5ASOh-21" target="iA7xg-9TLThsFJfs8mAg-20" edge="1">
          <mxGeometry relative="1" as="geometry" />
        </mxCell>
        <mxCell id="hqbnRQEziRmDWoI5ASOh-21" value="Case 2" style="rhombus;whiteSpace=wrap;html=1;" parent="1" vertex="1">
          <mxGeometry x="340" y="212.5" width="170" height="40" as="geometry" />
        </mxCell>
        <mxCell id="UCkw8O8bc3dzk6dkxjJ4-13" style="edgeStyle=orthogonalEdgeStyle;rounded=0;orthogonalLoop=1;jettySize=auto;html=1;exitX=1;exitY=0.5;exitDx=0;exitDy=0;entryX=0;entryY=0.5;entryDx=0;entryDy=0;" parent="1" source="hqbnRQEziRmDWoI5ASOh-22" target="iA7xg-9TLThsFJfs8mAg-22" edge="1">
          <mxGeometry relative="1" as="geometry" />
        </mxCell>
        <mxCell id="hqbnRQEziRmDWoI5ASOh-22" value="Default" style="rhombus;whiteSpace=wrap;html=1;" parent="1" vertex="1">
          <mxGeometry x="340" y="320" width="170" height="40" as="geometry" />
        </mxCell>
        <mxCell id="UCkw8O8bc3dzk6dkxjJ4-7" style="edgeStyle=orthogonalEdgeStyle;rounded=0;orthogonalLoop=1;jettySize=auto;html=1;exitX=0.5;exitY=1;exitDx=0;exitDy=0;entryX=0.5;entryY=0;entryDx=0;entryDy=0;" parent="1" source="hqbnRQEziRmDWoI5ASOh-23" target="hqbnRQEziRmDWoI5ASOh-22" edge="1">
          <mxGeometry relative="1" as="geometry" />
        </mxCell>
        <mxCell id="UCkw8O8bc3dzk6dkxjJ4-14" style="edgeStyle=orthogonalEdgeStyle;rounded=0;orthogonalLoop=1;jettySize=auto;html=1;exitX=1;exitY=0.5;exitDx=0;exitDy=0;entryX=0;entryY=0.5;entryDx=0;entryDy=0;" parent="1" source="hqbnRQEziRmDWoI5ASOh-23" target="iA7xg-9TLThsFJfs8mAg-21" edge="1">
          <mxGeometry relative="1" as="geometry" />
        </mxCell>
        <mxCell id="hqbnRQEziRmDWoI5ASOh-23" value="Case 3" style="rhombus;whiteSpace=wrap;html=1;" parent="1" vertex="1">
          <mxGeometry x="340" y="270" width="170" height="40" as="geometry" />
        </mxCell>
        <mxCell id="hqbnRQEziRmDWoI5ASOh-28" value="&lt;br&gt;&lt;div&gt;&lt;div align=&quot;left&quot;&gt;Finish&lt;br&gt;&lt;/div&gt;&lt;br&gt;&lt;/div&gt;" style="ellipse;whiteSpace=wrap;html=1;align=center;" parent="1" vertex="1">
          <mxGeometry x="367.5" y="480" width="120" height="40" as="geometry" />
        </mxCell>
        <mxCell id="UCkw8O8bc3dzk6dkxjJ4-17" style="edgeStyle=orthogonalEdgeStyle;rounded=0;orthogonalLoop=1;jettySize=auto;html=1;exitX=0.5;exitY=1;exitDx=0;exitDy=0;entryX=0.5;entryY=0;entryDx=0;entryDy=0;" parent="1" source="hqbnRQEziRmDWoI5ASOh-30" target="hqbnRQEziRmDWoI5ASOh-28" edge="1">
          <mxGeometry relative="1" as="geometry" />
        </mxCell>
        <mxCell id="hqbnRQEziRmDWoI5ASOh-30" value="Print P, A, A-P" style="shape=parallelogram;perimeter=parallelogramPerimeter;whiteSpace=wrap;html=1;fixedSize=1;" parent="1" vertex="1">
          <mxGeometry x="332.5" y="430" width="190" height="30" as="geometry" />
        </mxCell>
        <mxCell id="UCkw8O8bc3dzk6dkxjJ4-3" style="edgeStyle=orthogonalEdgeStyle;rounded=0;orthogonalLoop=1;jettySize=auto;html=1;exitX=0.5;exitY=1;exitDx=0;exitDy=0;entryX=0.5;entryY=0;entryDx=0;entryDy=0;" parent="1" source="hqbnRQEziRmDWoI5ASOh-35" target="iA7xg-9TLThsFJfs8mAg-14" edge="1">
          <mxGeometry relative="1" as="geometry" />
        </mxCell>
        <mxCell id="hqbnRQEziRmDWoI5ASOh-35" value="Switch" style="rounded=0;whiteSpace=wrap;html=1;" parent="1" vertex="1">
          <mxGeometry x="345" y="110" width="160" height="40" as="geometry" />
        </mxCell>
        <mxCell id="0I21_vD7akW8MUVqrIoi-1" value="&lt;font style=&quot;font-size: 9px;&quot;&gt;True&lt;/font&gt;" style="text;html=1;align=center;verticalAlign=middle;whiteSpace=wrap;rounded=0;" vertex="1" parent="1">
          <mxGeometry x="488" y="154" width="60" height="30" as="geometry" />
        </mxCell>
        <mxCell id="0I21_vD7akW8MUVqrIoi-2" value="&lt;font style=&quot;font-size: 9px;&quot;&gt;True&lt;/font&gt;" style="text;html=1;align=center;verticalAlign=middle;whiteSpace=wrap;rounded=0;" vertex="1" parent="1">
          <mxGeometry x="491" y="208" width="60" height="30" as="geometry" />
        </mxCell>
        <mxCell id="0I21_vD7akW8MUVqrIoi-3" value="&lt;font style=&quot;font-size: 9px;&quot;&gt;True&lt;/font&gt;" style="text;html=1;align=center;verticalAlign=middle;whiteSpace=wrap;rounded=0;" vertex="1" parent="1">
          <mxGeometry x="488" y="265" width="60" height="30" as="geometry" />
        </mxCell>
        <mxCell id="0I21_vD7akW8MUVqrIoi-6" value="&lt;font style=&quot;font-size: 9px;&quot;&gt;False&lt;/font&gt;" style="text;html=1;align=center;verticalAlign=middle;whiteSpace=wrap;rounded=0;" vertex="1" parent="1">
          <mxGeometry x="367.5" y="190" width="60" height="30" as="geometry" />
        </mxCell>
        <mxCell id="0I21_vD7akW8MUVqrIoi-7" value="&lt;font style=&quot;font-size: 9px;&quot;&gt;False&lt;/font&gt;" style="text;html=1;align=center;verticalAlign=middle;whiteSpace=wrap;rounded=0;" vertex="1" parent="1">
          <mxGeometry x="369" y="244" width="60" height="30" as="geometry" />
        </mxCell>
        <mxCell id="0I21_vD7akW8MUVqrIoi-8" value="&lt;font style=&quot;font-size: 9px;&quot;&gt;False&lt;/font&gt;" style="text;html=1;align=center;verticalAlign=middle;whiteSpace=wrap;rounded=0;" vertex="1" parent="1">
          <mxGeometry x="368" y="297" width="60" height="30" as="geometry" />
        </mxCell>
      </root>
    </mxGraphModel>
  </diagram>
</mxfile>
